<svg width="28" height="28" viewBox="0 0 28 28" fill="none" xmlns="http://www.w3.org/2000/svg">
<path d="M7.85011 2.70298L9.78711 2.11898C10.4264 1.92654 11.1138 1.97323 11.7212 2.25034C12.3286 2.52744 12.8144 3.01604 13.0881 3.62498L14.4461 6.64498C14.6818 7.1689 14.7475 7.75348 14.634 8.31665C14.5204 8.87982 14.2334 9.39329 13.8131 9.78498L11.7461 11.711C11.4691 11.974 11.6791 12.999 12.6911 14.753C13.7041 16.508 14.4871 17.202 14.8481 17.094L17.5561 16.266C18.105 16.0981 18.6927 16.1062 19.2368 16.2891C19.7809 16.472 20.2541 16.8206 20.5901 17.286L22.5201 19.961C22.9099 20.5011 23.0904 21.1644 23.0281 21.8277C22.9657 22.4909 22.6648 23.1089 22.1811 23.567L20.6891 24.98C20.2075 25.4361 19.6134 25.7563 18.9677 25.9079C18.3219 26.0595 17.6474 26.0371 17.0131 25.843C13.8871 24.886 10.9921 22.046 8.28911 17.363C5.58011 12.673 4.55711 8.71698 5.27011 5.48498C5.41392 4.83373 5.7288 4.23262 6.18231 3.74361C6.63582 3.25459 7.21153 2.89537 7.85011 2.70298Z" fill="#E6E6E6"/>
</svg>
